<?xml version="1.0" encoding="UTF-8" standalone="no"?>
<svg width="60px" height="60px" viewBox="0 0 60 60" version="1.1" xmlns="http://www.w3.org/2000/svg" xmlns:xlink="http://www.w3.org/1999/xlink" xmlns:sketch="http://www.bohemiancoding.com/sketch/ns">
    <!-- Generator: Sketch 3.2.2 (9983) - http://www.bohemiancoding.com/sketch -->
    <title>Nuclearfactory</title>
    <desc>Created with Sketch.</desc>
    <defs></defs>
    <g id="stroked" stroke="none" stroke-width="1" fill="none" fill-rule="evenodd" sketch:type="MSPage">
        <g id="Science" sketch:type="MSLayerGroup" transform="translate(-140.000000, -1107.000000)" stroke-linecap="square" stroke="#535353" stroke-width="2">
            <g id="Nuclearfactory" transform="translate(144.000000, 1112.000000)" sketch:type="MSShapeGroup">
                <path d="M5.8620369,14 L28.1379631,14 L28.1379631,14 C27.9261909,16.3490808 27.8181818,18.7253883 27.8181818,21.125 C27.8181818,31.9297333 30.0079926,42.2619893 34,51.7637067 L34,52 L0,52 L0,51.7637067 C3.99200737,42.2619893 6.18181818,31.9297333 6.18181818,21.125 C6.18181818,18.7253883 6.07380906,16.3490808 5.8620369,14 Z" id="Rectangle-87"></path>
                <path d="M6,10 L28,10" id="Line"></path>
                <path d="M42,1 L50,1" id="Line"></path>
                <path d="M42,4 L50,4 L52,52 L40,52 L42,4 Z" id="Rectangle-88"></path>
                <circle id="Oval-182" cx="17" cy="34" r="7"></circle>
                <path d="M17,33 L17,32" id="Line"></path>
                <path d="M17,34 L14.8349365,35.25" id="Line"></path>
                <path d="M19,34 L16.8349365,35.25" id="Line" transform="translate(17.917468, 34.625000) scale(-1, 1) translate(-17.917468, -34.625000) "></path>
            </g>
        </g>
    </g>
</svg>