<?xml version="1.0" encoding="UTF-8" standalone="no"?>
<svg width="60px" height="60px" viewBox="0 0 60 60" version="1.1" xmlns="http://www.w3.org/2000/svg" xmlns:xlink="http://www.w3.org/1999/xlink" xmlns:sketch="http://www.bohemiancoding.com/sketch/ns">
    <!-- Generator: Sketch 3.2.2 (9983) - http://www.bohemiancoding.com/sketch -->
    <title>Shakinghands</title>
    <desc>Created with Sketch.</desc>
    <defs></defs>
    <g id="stroked" stroke="none" stroke-width="1" fill="none" fill-rule="evenodd" sketch:type="MSPage">
        <g id="Marketing" sketch:type="MSLayerGroup" transform="translate(-358.000000, -1070.000000)" stroke="#535353" stroke-width="2" stroke-linejoin="round">
            <g id="Shakinghands" transform="translate(387.646447, 1097.646447) rotate(-315.000000) translate(-387.646447, -1097.646447) translate(365.146447, 1074.646447)" sketch:type="MSShapeGroup">
                <path d="M27,14 C33,14 45,16 45,16 L45,40 C45,40 33,42 27,42 C21,42 9,40 9,40 L9,16 C9,16 11.4548373,15.5999231 15.1587405,15.104346" id="Rectangle-1571" stroke-linecap="round"></path>
                <path d="M45,22 L31,22" id="Line" stroke-linecap="round"></path>
                <path d="M45,28 L31,28" id="Line" stroke-linecap="round"></path>
                <path d="M45,34 L31,34" id="Line" stroke-linecap="round"></path>
                <rect id="Rectangle-1570" stroke-linecap="round" x="1" y="13" width="8" height="30" rx="2"></rect>
                <rect id="Rectangle-1570" stroke-linecap="round" transform="translate(28.000000, 5.000000) rotate(-270.000000) translate(-28.000000, -5.000000) " x="24" y="-10" width="8" height="30" rx="2"></rect>
                <path d="M30.5,55.5 L25.5,55.5 L25.5,31.5 L30.5,31.5" id="Rectangle-1572" stroke-linecap="round" transform="translate(28.000000, 43.500000) rotate(-90.000000) translate(-28.000000, -43.500000) "></path>
                <path d="M22,46 L22,43" id="Line" stroke-linecap="square"></path>
                <path d="M28,46 L28,43" id="Line" stroke-linecap="square"></path>
                <path d="M34,46 L34,43" id="Line" stroke-linecap="square"></path>
                <path d="M17.7438788,8.98944071 C17.7438788,8.98944071 14.4770114,15.0716677 14.4770114,22.3617853 C14.4770114,29.6519029 15.0522416,30.9529684 15.5813433,30.9529684 C16.1104451,30.9529684 18.8522422,28.6826704 18.8522422,28.6826704 C18.8522422,28.6826704 20.9637012,22.8265823 22.7608755,21.3988934 C24.5580499,19.9712045 25.637026,15.3517979 26.0454611,13.99544" id="Path-3595" stroke-linecap="round"></path>
                <path d="M37.8201139,9.32914115 L39.7911096,15.2103578" id="Path-3596" stroke-linecap="round"></path>
            </g>
        </g>
    </g>
</svg>