<?xml version="1.0" encoding="UTF-8" standalone="no"?>
<svg width="60px" height="60px" viewBox="0 0 60 60" version="1.1" xmlns="http://www.w3.org/2000/svg" xmlns:xlink="http://www.w3.org/1999/xlink" xmlns:sketch="http://www.bohemiancoding.com/sketch/ns">
    <!-- Generator: Sketch 3.2.2 (9983) - http://www.bohemiancoding.com/sketch -->
    <title>Github</title>
    <desc>Created with Sketch.</desc>
    <defs></defs>
    <g id="stroked" stroke="none" stroke-width="1" fill="none" fill-rule="evenodd" sketch:type="MSPage">
        <g id="Brands" sketch:type="MSLayerGroup" transform="translate(3.000000, -356.000000)" stroke="#535353" stroke-width="2">
            <g id="Github" transform="translate(0.000000, 365.000000)" sketch:type="MSShapeGroup">
                <ellipse id="Oval-1945" stroke-linecap="round" stroke-linejoin="round" cx="18" cy="32" rx="4" ry="5"></ellipse>
                <ellipse id="Oval-1947" stroke-linecap="round" stroke-linejoin="round" cx="37" cy="32" rx="4" ry="5"></ellipse>
                <path d="M10.4335082,24.0252167 C11.872918,22.7029351 13.6372131,22.1738415 15.4661311,22.1295243 C18.2564262,22.0625962 21.0520328,22.2941312 23.8458689,22.3058888 C26.9256393,22.3194553 30.0062951,22.2398652 33.0860656,22.1774593 C34.8556721,22.1412819 36.6243934,22.0318455 38.394,22.0010948 C43.1752131,21.9196958 46.0496066,26.3948322 46.494,29.6345126 C46.7843607,31.7508867 46.5240984,33.8157081 45.8557377,35.84797 C44.9120656,38.7168327 42.9238033,40.4587714 40.2122951,41.3894333 C37.1891803,42.4277229 34.0536393,42.8781307 30.8729508,42.9794272 C29.5610164,43.0210312 28.2473115,42.9866627 26.9336066,42.9866627 C22.8747541,43.0454509 18.8318361,42.8609465 14.8836393,41.7430668 C9.92272131,40.3393862 8.08495082,37.5663934 7.60514754,32.4771467 C7.30327869,29.2754525 7.94685246,26.3098154 10.4335082,24.0252167 L10.4335082,24.0252167 Z" id="Path"></path>
                <path d="M3.64632787,38.7570842 C6.94298361,43.9279323 11.869377,46.2004706 17.539377,46.6835222 C22.366623,47.095214 27.2399016,46.9835998 32.0928197,46.9927485 C35.5567869,46.9991526 38.9853443,46.6194813 42.271377,45.3331734 C47.365082,43.3396706 50.7360984,39.6820183 52.3401639,34.2916013 C53.2740984,31.1554252 53.6485574,27.9424001 53.5440984,24.6671637 C53.4334426,21.2144424 52.531377,18.0252038 50.5077049,15.2394232 C49.8809508,14.3767003 49.417082,13.6420593 49.5392459,12.379538 C49.7092131,10.612923 49.4507213,8.78043743 49.2090492,7.00009944 C48.9045246,4.75409236 48.3282295,2.56480725 47.4146557,0.442307692 C45.1563934,0.926274187 42.919377,1.31509415 40.9240328,2.46691611 C38.8074098,3.6891831 36.7500984,5.02031967 34.6538361,6.27918148 C34.4157049,6.42190128 34.0757705,6.50058014 33.807541,6.45483662 C29.3158033,5.6707926 24.8276066,5.70006846 20.3332131,6.4337946 C19.9923934,6.4896017 19.5648197,6.37524288 19.2594098,6.19318366 C18.1484262,5.5280728 17.0949836,4.75958158 15.9786885,4.10544917 C13.064459,2.39464134 10.0634754,0.899742942 6.60481967,0.457860491 C6.50655738,0.672855058 6.42511475,0.827468173 6.36491803,0.989400251 C5.32386885,3.7943932 4.70419672,6.70002191 4.50767213,9.69439306 C4.43596721,10.7821741 4.35540984,11.8955715 4.50767213,12.9623105 C4.59442623,13.5697845 4.50678689,13.9320732 4.15977049,14.3657218 C2.94698361,15.8780028 2.00065574,17.5448968 1.38452459,19.4203813 C0.209803279,22.9938655 0.284163934,26.635965 0.815311475,30.2890429 C1.24731148,33.2824992 1.99888525,36.1734899 3.64632787,38.7570842 L3.64632787,38.7570842 Z" id="Path"></path>
            </g>
        </g>
    </g>
</svg>