<?xml version="1.0" encoding="UTF-8" standalone="no"?>
<svg width="60px" height="60px" viewBox="0 0 60 60" version="1.1" xmlns="http://www.w3.org/2000/svg" xmlns:xlink="http://www.w3.org/1999/xlink" xmlns:sketch="http://www.bohemiancoding.com/sketch/ns">
    <!-- Generator: Sketch 3.2.2 (9983) - http://www.bohemiancoding.com/sketch -->
    <title>Businessmen</title>
    <desc>Created with Sketch.</desc>
    <defs></defs>
    <g id="stroked" stroke="none" stroke-width="1" fill="none" fill-rule="evenodd" sketch:type="MSPage">
        <g id="Interface" sketch:type="MSLayerGroup" transform="translate(3.000000, -1555.000000)" stroke="#535353" stroke-width="2" stroke-linecap="round" stroke-linejoin="round">
            <g id="Businessmen" transform="translate(5.000000, 1559.000000)" sketch:type="MSShapeGroup">
                <path d="M8,13.0356587 L8,6.55554199 C8,2.93501612 10.9435691,0 14.5470797,0 L36,0 L36,13.0353337 L36,13.0353337 C37.6961471,13.2772418 39,14.7325014 39,16.5089165 L39,17.4910835 C39,19.2699936 37.6762849,20.7397219 35.9669491,20.9689346 C35.4690486,28.2489883 29.4076541,34 22,34 C14.5943647,34 8.53172792,28.2428456 8.03313835,20.9692313 C6.32086531,20.741671 5,19.2790502 5,17.4910835 L5,16.5089165 C5,14.7414886 6.30668206,13.279264 8,13.0356587 Z" id="Rectangle-2323"></path>
                <path d="M16.4423077,33 L13.5,39.0454545 L6.49532746,39.0454545 C2.90063298,39.0454545 0,41.9454283 0,45.5227273 L0,52 M45,52 L45,45.5227273 C45,41.9527074 42.0919428,39.0454545 38.5046725,39.0454545 L30.6346154,39.0454545 L27.6923077,33" id="Rectangle-2326"></path>
                <polygon id="Triangle-102" transform="translate(16.500000, 42.000000) rotate(-45.000000) translate(-16.500000, -42.000000) " points="17.2071068 37.5 19.2071068 46.5 13.7928932 46.5 "></polygon>
                <polygon id="Triangle-103" transform="translate(27.500000, 42.000000) scale(-1, 1) rotate(-45.000000) translate(-27.500000, -42.000000) " points="28.2071068 37.5 30.2071068 46.5 24.7928932 46.5 "></polygon>
            </g>
        </g>
    </g>
</svg>