<?xml version="1.0" encoding="UTF-8" standalone="no"?>
<svg width="60px" height="60px" viewBox="0 0 60 60" version="1.1" xmlns="http://www.w3.org/2000/svg" xmlns:xlink="http://www.w3.org/1999/xlink" xmlns:sketch="http://www.bohemiancoding.com/sketch/ns">
    <!-- Generator: Sketch 3.2.2 (9983) - http://www.bohemiancoding.com/sketch -->
    <title>Develop</title>
    <desc>Created with Sketch.</desc>
    <defs></defs>
    <g id="stroked" stroke="none" stroke-width="1" fill="none" fill-rule="evenodd" sketch:type="MSPage">
        <g id="Interface" sketch:type="MSLayerGroup" transform="translate(-477.000000, -2035.000000)" stroke="#535353" stroke-width="2" stroke-linejoin="round">
            <g id="Develop" transform="translate(481.000000, 2045.000000)" sketch:type="MSShapeGroup">
                <rect id="Rectangle-2397" stroke-linecap="round" x="0" y="0" width="54" height="40"></rect>
                <rect id="Rectangle-2438" stroke-linecap="round" x="4" y="6" width="7" height="4"></rect>
                <rect id="Rectangle-2439" stroke-linecap="round" x="4" y="14" width="7" height="4"></rect>
                <rect id="Rectangle-2440" stroke-linecap="round" x="4" y="22" width="7" height="4"></rect>
                <rect id="Rectangle-2441" stroke-linecap="round" x="4" y="30" width="7" height="4"></rect>
                <path d="M15,8 L24,8" id="Line" stroke-linecap="square"></path>
                <path d="M15,24 L36,24" id="Line" stroke-linecap="square"></path>
                <path d="M21,32 L42,32" id="Line" stroke-linecap="square"></path>
                <path d="M21,28 L26,28" id="Line" stroke-linecap="square"></path>
                <path d="M30,28 L35,28" id="Line" stroke-linecap="square"></path>
                <path d="M21,16 L30,16" id="Line" stroke-linecap="square"></path>
                <path d="M21,12 L28,12" id="Line" stroke-linecap="square"></path>
                <path d="M34,16 L41,16" id="Line" stroke-linecap="square"></path>
                <path d="M40,24 L42,24" id="Line" stroke-linecap="square"></path>
                <path d="M32,12 L48,12" id="Line" stroke-linecap="square"></path>
                <path d="M29,20 L45,20" id="Line" stroke-linecap="square"></path>
            </g>
        </g>
    </g>
</svg>