<?xml version="1.0" encoding="iso-8859-1"?>
<!DOCTYPE svg PUBLIC "-//W3C//DTD SVG 1.1//EN" "http://www.w3.org/Graphics/SVG/1.1/DTD/svg11.dtd">
<svg 
 version="1.1" xmlns="http://www.w3.org/2000/svg" xmlns:xlink="http://www.w3.org/1999/xlink" x="0px" y="0px" width="512px"
	 height="512px" viewBox="0 0 512 512" style="enable-background:new 0 0 512 512;" xml:space="preserve"
><g id="afcae5a789ccd549f9c6e2a2f811a65a"><g></g><g fill="#717171"><path style="display: inline;" d="M477.432,204.9h-23.469c-4.87-18.928-12.416-36.768-22.157-53.156l16.548-16.547
		c13.304-13.304,15.999-32.177,6.019-42.157l-36.13-36.13c-9.979-9.98-28.853-7.286-42.157,6.023l-16.737,16.743
		c-16.139-9.482-33.668-16.853-52.248-21.638V34.568C307.1,15.75,295.663,0.5,281.551,0.5H230.45
		c-14.113,0-25.55,15.25-25.55,34.068v23.469c-18.579,4.786-36.104,12.152-52.243,21.633l-16.743-16.737
		c-13.304-13.309-32.177-16.004-42.157-6.023l-36.129,36.13c-9.98,9.98-7.286,28.853,6.023,42.157l16.542,16.542
		c-9.736,16.388-17.286,34.233-22.157,53.161H34.568C15.75,204.9,0.5,216.337,0.5,230.45v51.101
		c0,14.112,15.25,25.549,34.068,25.549h23.469c4.786,18.58,12.156,36.11,21.633,52.248l-16.732,16.737
		c-13.314,13.305-16.009,32.178-6.028,42.157l36.13,36.13c9.98,9.98,28.853,7.285,42.157-6.023l16.547-16.543
		c16.388,9.741,34.233,17.287,53.156,22.157v23.469c0,18.818,11.438,34.068,25.55,34.068h51.101
		c14.112,0,25.549-15.25,25.549-34.068v-23.469c18.928-4.875,36.773-12.421,53.161-22.157l16.542,16.543
		c13.305,13.309,32.178,16.004,42.159,6.023l36.129-36.135c9.979-9.975,7.285-28.848-6.023-42.152l-16.737-16.737
		c9.477-16.138,16.847-33.668,21.633-52.248h23.469c18.818,0,34.068-11.437,34.068-25.549V230.45
		C511.5,216.337,496.25,204.9,477.432,204.9z M256,409.3c-84.53,0-153.3-68.771-153.3-153.3c0-84.53,68.77-153.3,153.3-153.3
		c84.529,0,153.3,68.77,153.3,153.3C409.3,340.529,340.529,409.3,256,409.3z M370.975,256c0,63.501-51.474,114.975-114.975,114.975
		c-63.5,0-114.975-51.474-114.975-114.975c0-63.5,51.475-114.975,114.975-114.975C319.501,141.025,370.975,192.5,370.975,256z"></path></g></g></svg>