<?xml version="1.0" encoding="UTF-8" standalone="no"?>
<svg width="60px" height="60px" viewBox="0 0 60 60" version="1.1" xmlns="http://www.w3.org/2000/svg" xmlns:xlink="http://www.w3.org/1999/xlink" xmlns:sketch="http://www.bohemiancoding.com/sketch/ns">
    <!-- Generator: Sketch 3.2.2 (9983) - http://www.bohemiancoding.com/sketch -->
    <title>Statistics</title>
    <desc>Created with Sketch.</desc>
    <defs></defs>
    <g id="stroked" stroke="none" stroke-width="1" fill="none" fill-rule="evenodd" sketch:type="MSPage">
        <g id="Tech" sketch:type="MSLayerGroup" transform="translate(-358.000000, -729.000000)" stroke-linecap="square" stroke="#535353" stroke-width="2">
            <g id="Statistics" transform="translate(362.000000, 733.000000)" sketch:type="MSShapeGroup">
                <path d="M1,0.5 L1,51.6566238" id="Line"></path>
                <path d="M1.84337616,26 L53,26" id="Line-148"></path>
                <path d="M4.84337616,6 L8,6" id="Line-148"></path>
                <path d="M4.84337616,11 L8,11" id="Line-149"></path>
                <path d="M4.84337616,16 L8,16" id="Line-149"></path>
                <path d="M4.84337616,21 L8,21" id="Line-149"></path>
                <path d="M4.84337616,31 L8,31" id="Line-153"></path>
                <path d="M4.84337616,36 L8,36" id="Line-150"></path>
                <path d="M4.84337616,41 L8,41" id="Line-151"></path>
                <path d="M4.84337616,46 L8,46" id="Line-152"></path>
                <rect id="Rectangle-423" x="26" y="14" width="5" height="9"></rect>
                <rect id="Rectangle-425" x="36" y="1" width="5" height="22"></rect>
                <rect id="Rectangle-425" x="46" y="6" width="5" height="17"></rect>
                <rect id="Rectangle-428" x="17" y="29" width="5" height="6"></rect>
            </g>
        </g>
    </g>
</svg>